<svg version="1.1" xmlns="http://www.w3.org/2000/svg" viewBox="0 0 521.2166493083869 610.7042829184234" width="521.2166493083869" height="610.7042829184234">
  <!-- svg-source:excalidraw -->
  
  <defs>
    <style>
      @font-face {
        font-family: "Virgil";
        src: url("https://excalidraw.com/Virgil.woff2");
      }
      @font-face {
        font-family: "Cascadia";
        src: url("https://excalidraw.com/Cascadia.woff2");
      }
    </style>
  </defs>
  <g stroke-linecap="round"><g transform="translate(281.9455658015629 227.10479849223248) rotate(0 -23.59977014243026 79.9004832087561)" fill-rule="evenodd"><path d="M-21.76 0.59 L-95.03 41.76 L-93.11 118.12 L-23.01 159.21 L45.79 115.69 L45.94 38.22 L-23.36 1.68" stroke="none" stroke-width="0" fill="#40c057" fill-rule="evenodd"></path><path d="M-22.9 0.87 C-37.06 6.94, -52.41 17.04, -92.88 41.99 M-22.57 0.68 C-44.45 11.74, -65.51 22.88, -93.55 40.22 M-95.35 39.42 C-93.21 66.57, -93.8 96.07, -92.95 117.37 M-94.14 40.7 C-93.94 59.82, -93.97 78, -93.9 118.51 M-92.15 119.8 C-73.53 130.96, -57.09 141.21, -22.35 160.45 M-95.1 119.74 C-75.23 129.74, -57.79 140.88, -23.48 159.76 M-21.5 159.43 C-2.35 144.78, 18.58 131.04, 46.25 116.77 M-23.16 160.5 C-6.96 149.22, 10.45 138.42, 47.1 114.74 M47.19 114.36 C47.95 90.5, 46.61 65.84, 46.38 38.7 M47.1 114.86 C45.72 96.12, 46.66 75.14, 46.21 37.62 M48.15 37.97 C22.44 23.5, -2.65 10.87, -21.64 1.33 M45.3 38.86 C20.48 24.41, -2.68 10.69, -23.06 -0.7 M-23.08 0 C-23.08 0, -23.08 0, -23.08 0 M-23.08 0 C-23.08 0, -23.08 0, -23.08 0" stroke="#000000" stroke-width="1" fill="none"></path></g></g><g stroke-linecap="round"><g transform="translate(240.34419245062713 295.65023449072476) rotate(0 17.229752363811997 9.692391337360448)" fill-rule="evenodd"><path d="M-5.08 -6.39 L-3.44 38.64 L-5.19 44.24 L-11.6 46.43 L-13.59 44.46 L-15.09 43.59 L-17.84 26.21 L-19.76 -11.7 L-15.16 -23.61 L-10.5 -26.25 L-2.16 -26.23 L38.36 25.85 L38.28 23.9 L40.8 15.25 L38.69 -22.18 L42.43 -24.77 L47.4 -29.13 L48.77 -28.3 L51.18 -25.4 L53.8 -9.56 L52.51 26.23 L50.9 40.35 L47.58 43.72 L42.34 47.07 L32.7 44.94 L27.89 39.2 L-6.68 -5.07" stroke="none" stroke-width="0" fill="#ffff" fill-rule="evenodd"></path><path d="M-4.63 -5.44 C-4.36 -1.43, -3.62 8.92, -3.65 17.15 C-3.67 25.39, -2.68 39.62, -4.8 43.97 C-6.91 48.31, -13.89 49.61, -16.33 43.22 C-18.76 36.83, -19.41 16.61, -19.38 5.61 C-19.35 -5.39, -19.25 -17.69, -16.16 -22.78 C-13.07 -27.86, -6.56 -28.62, -0.85 -24.89 C4.86 -21.17, 11.77 -8.78, 18.1 -0.43 C24.42 7.92, 33.48 28.74, 37.09 25.21 C40.69 21.68, 37.37 -13.26, 39.73 -21.64 C42.1 -30.02, 49.04 -29.6, 51.3 -25.08 C53.57 -20.56, 53.24 -5.41, 53.33 5.48 C53.41 16.37, 54.94 33.9, 51.81 40.27 C48.68 46.64, 40.99 47.52, 34.55 43.71 C28.1 39.9, 19.8 25.58, 13.13 17.41 C6.46 9.23, -2.57 -1.42, -5.48 -5.32 M-6.03 -6.21 C-5.81 -1.97, -4.34 9.74, -4.22 18.34 C-4.1 26.94, -3.39 41.62, -5.3 45.4 C-7.21 49.18, -13.08 47.58, -15.68 41.02 C-18.28 34.46, -20.99 16.8, -20.88 6.05 C-20.78 -4.7, -17.98 -18.67, -15.07 -23.49 C-12.16 -28.32, -8.81 -26.6, -3.44 -22.88 C1.92 -19.15, 10.12 -9, 17.12 -1.16 C24.12 6.69, 34.73 27.64, 38.56 24.2 C42.39 20.76, 37.96 -13.63, 40.09 -21.78 C42.23 -29.93, 48.85 -29.11, 51.37 -24.71 C53.88 -20.31, 55.01 -6.62, 55.19 4.6 C55.37 15.82, 55.96 36.09, 52.44 42.62 C48.92 49.14, 40.49 47.5, 34.05 43.74 C27.62 39.98, 20.32 28.59, 13.83 20.07 C7.35 11.55, -1.64 -3.17, -4.83 -7.39" stroke="#000000" stroke-width="1" fill="none"></path></g></g><g stroke-linecap="round" transform="translate(221.60009765625 10) rotate(0 35.408220894427814 54.15214451096952)"><path d="M-0.89 -1.89 L70.3 -1.47 L72.22 109.79 L0.18 109.74" stroke="none" stroke-width="0" fill="#ced4da"></path><path d="M-0.48 -0.42 C23.65 -0.22, 49.61 -1.13, 70.33 0.68 M0.94 0.21 C27.2 0.47, 53.84 1.02, 71.65 -0.67 M70.04 -0.04 C70.68 44.13, 72.09 86.57, 71.04 109.18 M70.53 0.91 C71.33 21.97, 70.97 43.1, 71.18 109.09 M70.29 106.89 C52.71 108.44, 35.71 105.92, 0.79 107.06 M70.49 108.2 C49.58 108.66, 26.82 108.66, 0.29 107.86 M-0.27 106.84 C-1.04 71.39, -0.89 33.79, -0.28 1.68 M-0.9 107.47 C-0.51 82.69, 0.39 55.71, 0.51 0.59" stroke="#000000" stroke-width="1" fill="none"></path></g><g stroke-linecap="round" transform="translate(229.7078017463416 18.257181350396877) rotate(0 27.90058176757168 41.41639447687882)"><path d="M-1.89 -0.52 L54.33 1.4 L57.29 83.01 L1.44 81.63" stroke="none" stroke-width="0" fill="#fff"></path><path d="M-0.42 -0.84 C14.32 0.76, 27.61 -0.35, 56.48 1.67 M0.21 0.05 C14.41 -0.98, 29.44 0.31, 55.13 0.94 M55.76 -0.08 C57.56 25.76, 57.3 49.09, 56.68 80.89 M56.71 -0.34 C55.12 30.67, 54.3 63.12, 56.59 82.35 M54.39 82.58 C37.34 83.29, 15.63 83.47, -1.25 83.02 M55.7 83.5 C39.63 82.47, 22.81 82.94, -0.44 83.28 M-1.46 82.35 C0.69 53.38, 0.42 24.31, 1.68 -1.2 M-0.84 82.04 C-0.01 60.25, -0.98 37.95, 0.59 -0.44" stroke="#000000" stroke-width="1" fill="none"></path></g><g stroke-linecap="round" transform="translate(251.89447151069362 104.63486447298169) rotate(0 5.713912003219434 5.713912003219434)"><path d="M4.76 0.47 C5.89 0.19, 8.44 0.2, 9.5 0.71 C10.55 1.21, 10.9 2.22, 11.09 3.49 C11.29 4.76, 11.18 7.08, 10.66 8.33 C10.14 9.57, 9.07 10.34, 7.98 10.96 C6.88 11.59, 5.36 12.45, 4.11 12.08 C2.85 11.71, 1.05 10.03, 0.44 8.74 C-0.16 7.45, 0.42 5.64, 0.48 4.33 C0.55 3.02, -0.28 1.58, 0.83 0.89 C1.93 0.2, 5.98 0.16, 7.1 0.2 C8.21 0.25, 7.5 1.16, 7.52 1.16 M4.16 1.75 C5.25 1.52, 6.25 1.2, 7.12 1.22 C7.99 1.25, 8.45 1, 9.37 1.91 C10.29 2.82, 12.79 5.65, 12.65 6.7 C12.5 7.75, 9.48 7.39, 8.51 8.21 C7.54 9.04, 7.87 11.18, 6.82 11.64 C5.76 12.1, 3.08 11.51, 2.19 10.97 C1.31 10.44, 1.57 9.47, 1.51 8.42 C1.45 7.36, 1.56 6.19, 1.84 4.65 C2.12 3.1, 2.74 -0.31, 3.18 -0.85 C3.61 -1.4, 4.54 1.22, 4.44 1.39" stroke="none" stroke-width="0" fill="#fff"></path><path d="M5.63 0.34 C6.88 0.3, 9.51 0.12, 10.34 1.04 C11.18 1.95, 10.55 4.53, 10.63 5.82 C10.7 7.11, 11.32 7.95, 10.79 8.76 C10.26 9.57, 8.57 10.17, 7.46 10.68 C6.35 11.2, 5.35 12.08, 4.11 11.86 C2.87 11.64, 0.69 10.52, 0.02 9.37 C-0.66 8.22, -0.23 6.31, 0.07 4.95 C0.36 3.59, 0.73 1.91, 1.78 1.21 C2.83 0.52, 5.38 0.82, 6.34 0.76 C7.3 0.69, 7.52 0.78, 7.53 0.83 M2.61 2.02 C3.32 1.63, 5.31 0.32, 6.4 0.15 C7.49 -0.02, 8.24 -0.16, 9.17 1 C10.1 2.16, 11.96 5.57, 11.98 7.11 C11.99 8.64, 10.36 9.56, 9.23 10.21 C8.11 10.85, 6.51 10.95, 5.24 10.98 C3.97 11, 2.35 10.87, 1.62 10.36 C0.88 9.85, 1.25 8.95, 0.82 7.92 C0.4 6.88, -1.14 5.34, -0.92 4.15 C-0.71 2.97, 1.43 1.47, 2.11 0.8 C2.78 0.13, 3 0.09, 3.12 0.13" stroke="#000000" stroke-width="1" fill="none"></path></g><g stroke-linecap="round" transform="translate(237.98749214631198 28.801338026536996) rotate(0 19.620891367601075 9.944730235592885)"><path d="M0 0 C0 0, 0 0, 0 0 M0 0 C0 0, 0 0, 0 0 M-0.88 7.17 C1.34 4.41, 3.69 2.82, 4.63 0.91 M0.1 6.05 C1.55 4.14, 2.96 2.21, 4.65 0.37 M0.19 11.83 C1.89 7.33, 5.38 5.2, 10.49 0.49 M-0.08 12.33 C3.11 7.76, 6.68 4.06, 11.27 0.37 M1.61 17.84 C2.67 14.81, 7.78 10.15, 15.42 -0.7 M-0.08 19.34 C4.01 12.45, 9.61 7.3, 15.07 -0.04 M1.89 22.74 C7.81 15.77, 15.54 6.8, 19.31 -0.4 M2.91 21.77 C9.68 12.84, 17.46 4.09, 20.91 -0.5 M6.3 21.35 C13.08 13.24, 21.41 5.77, 26.9 0.18 M7.85 22.47 C15.63 12.7, 22.14 3.89, 26.81 -0.64 M14.71 23.07 C20.41 15.89, 25.62 8.17, 30.31 -2.09 M13.7 21.83 C18.45 15.96, 24.05 8.68, 32.67 0.21 M17.84 20.34 C21.68 15.76, 27.17 12.59, 35.21 -0.64 M18.76 21.64 C24.06 16.18, 28.75 10.19, 36.88 0.88 M22.72 23.7 C31.65 15.05, 36.4 5.51, 42.42 -0.29 M24.3 22.61 C30.98 13.35, 37.66 6.37, 41.01 0.69 M29.06 23.32 C31.88 18.36, 34.54 17.07, 42.08 6.31 M28.09 21.21 C33.62 16.46, 36.44 11.33, 40.24 7.22 M34.13 21.1 C37.42 19.39, 39.9 15.8, 40.99 14.07 M33.64 21.43 C37.1 18.75, 39.42 14.89, 41.21 13.69 M-0.04 19.86 C-0.04 19.86, -0.04 19.86, -0.04 19.86 M-0.04 19.86 C-0.04 19.86, -0.04 19.86, -0.04 19.86 M5.6 20.48 C4.55 19.26, 2.39 16, 0.51 14.43 M6.04 20.43 C4.98 18.35, 3.46 17.64, 0.38 14.92 M11.09 21.32 C8.96 17.24, 6.1 13.88, -1.54 8.61 M12.79 20.49 C7.78 16.18, 3.24 11.68, 0.43 8.76 M17.4 19.64 C12.75 16.06, 11.87 14.53, 1.02 5.94 M18.83 20.49 C14.53 16.37, 10.18 13.41, 0.11 3.99 M24.12 18.04 C13.65 13.11, 8.14 6.12, 1.9 -0.21 M24.23 20.59 C17.54 14.6, 12.73 9.07, 0.93 -0.73 M32.37 19.49 C23.27 13.37, 16.7 8.48, 6.14 -0.88 M29.53 20.04 C23.61 14.1, 17.05 9.36, 7.17 -1.2 M37 20.7 C30.51 12.48, 19.15 7.41, 12.18 0.93 M37.59 20.89 C30.34 13.86, 22.56 7.99, 13.48 -0.23 M42.71 18.61 C33.53 12.85, 27.05 3.38, 18.18 -0.09 M40.37 18.62 C33.84 13.36, 28.32 6.52, 18.85 -0.66 M39.13 11.17 C37.52 9.33, 34.71 7.38, 26.26 0.08 M41.06 12.23 C37.48 10.8, 34.39 6.65, 24.98 -1.41 M40.25 8.77 C36.83 3.7, 33.36 2.89, 30.44 -0.63 M41.25 8.29 C38.58 6, 37.17 3.91, 31.07 -1.19 M40.81 2.49 C39.78 1.6, 39.59 1.37, 37.45 -0.63 M40.46 2.24 C39.57 1.2, 38.56 0.24, 37.65 -0.5" stroke="#fab005" stroke-width="0.5" fill="none"></path><path d="M0.11 0.63 C10.03 -0.32, 22.34 1.83, 38.43 -1.48 M-0.06 -0.45 C15.95 0.81, 30.23 0.92, 39.19 0.38 M40.67 1.33 C40.41 5.42, 40.11 8.46, 40.81 18.21 M39.26 -0.7 C38.62 5.76, 40.21 10.31, 39.68 19.06 M39.97 20.49 C26.71 20.63, 16.52 20.03, 0.03 19.04 M39.9 19.71 C29.4 20.45, 17.8 20.6, 0.52 19.57 M0.42 19.56 C0.3 13.92, 1.82 7.3, -0.52 0.92 M0.38 20 C-0.43 16.21, 0.76 11.08, -0.94 -0.26" stroke="#000000" stroke-width="1" fill="none"></path></g><g stroke-linecap="round" transform="translate(237.98749214631198 64.35909807149142) rotate(0 19.620891367601075 9.944730235592885)"><path d="M0 0 C0 0, 0 0, 0 0 M0 0 C0 0, 0 0, 0 0 M0.51 6.16 C1.12 5.26, 2.89 3.12, 5.54 0.51 M-0.61 6.51 C0.74 4.66, 2.08 2.93, 4.99 0.31 M-0.08 10.69 C1.21 8.51, 4.86 6.59, 11.16 0.71 M0.42 11.36 C3.04 7.87, 6.53 5.8, 11.03 -0.27 M-0.73 16.83 C4.69 13.47, 8.48 9.96, 14.6 0.37 M0.77 17.68 C2.92 14.44, 6.78 9.76, 15.25 0.84 M3.16 20.56 C8.24 16.61, 11.34 9.83, 20.93 1.71 M2.19 21.91 C7.88 15.13, 13.76 7.28, 20.83 0.89 M6.39 20.33 C11.17 16.37, 16.58 13.21, 26.13 2.29 M7.51 22.83 C10.93 16.54, 15.28 12.46, 25.32 0.85 M14.16 22.52 C20.18 14.56, 25.66 7.6, 29.9 -0.19 M12.91 21.72 C19.02 15.19, 23.73 9.7, 32.2 -0.7 M16.04 21.57 C23.82 14.33, 33 4.14, 35.98 -0.09 M17.35 22.93 C23.39 15.96, 28.89 9.77, 37.5 1.08 M25.45 23.34 C31.66 13.26, 36.97 6.77, 39.55 3.21 M24.36 22.3 C28.43 15.74, 34.78 9.09, 40.52 0.54 M29.69 22.67 C30.34 19.72, 34.66 17.47, 39.49 8.82 M27.58 22.9 C32.4 16.21, 36.82 11.19, 40.4 8.24 M33.51 22.42 C36.32 20.52, 37.25 17.64, 42 14.36 M33.84 21.83 C35.86 19.7, 36.71 18.18, 41.62 13.58 M-0.04 19.86 C-0.04 19.86, -0.04 19.86, -0.04 19.86 M-0.04 19.86 C-0.04 19.86, -0.04 19.86, -0.04 19.86 M6.72 20.29 C5.04 18.23, 1.41 16.64, -0.11 14.62 M6.67 20.36 C4.21 18.83, 3.08 16.94, 0.37 14.79 M13.6 20.05 C9.31 17.61, 5.56 12.37, -0.69 10.04 M12.77 19.78 C7.88 15.97, 2.9 13.1, -0.54 8.52 M18.05 18.28 C10.94 15.31, 6.04 8.97, 1.98 2.53 M18.9 19.88 C14.18 15.99, 10.57 12.89, 0.04 4.8 M22.49 17.7 C15.66 12.76, 6.97 5.28, 1.19 -1.82 M25.04 18.85 C17.31 13.73, 9.75 7.69, 0.66 -1.15 M30.08 18.66 C22.95 13.23, 17.41 8.86, 6.65 -0.89 M30.63 19.45 C24.32 14.27, 19.57 9.86, 6.33 -0.09 M37.42 21.92 C29.54 13, 24.94 8.08, 14.49 -1.34 M37.62 20.47 C26.74 11.54, 17.47 5.06, 13.34 -0.29 M41.18 18.97 C33.95 13.43, 23.14 3.46, 19.61 -0.54 M41.19 18.09 C33.33 11.73, 23.8 3.31, 19.04 -1.59 M38.98 12.92 C35.57 9.24, 31.86 6.22, 25.82 -2.79 M40.04 12.93 C37.53 9.92, 32.45 6.4, 24.33 -0.58 M41.93 7 C37.53 4.75, 37.24 2.85, 31.25 -1.93 M41.45 7.49 C37.8 5.48, 34.4 2.38, 30.69 -1.3 M40.9 2.03 C39.58 1.62, 38.89 0.29, 37.39 -0.29 M40.66 2.22 C39.53 1.39, 38.49 0.52, 37.52 -0.52" stroke="#fab005" stroke-width="0.5" fill="none"></path><path d="M0.63 -0.8 C10.47 0.66, 23.58 -0.84, 37.77 1.87 M-0.45 0.5 C13.42 -0.65, 26.12 -0.03, 39.62 -0.39 M40.57 1.18 C39.46 6.8, 37.3 13.42, 37.56 19.32 M38.54 -0.8 C39.54 8.56, 38.7 15.98, 38.41 19.63 M39.84 18.1 C31.03 18.78, 21.42 20.06, -0.85 19.24 M39.06 20.55 C28.17 19.71, 16.97 20.66, -0.32 19.75 M-0.33 20.04 C-0.23 17.05, -1.15 10.35, 0.92 -1.78 M0.11 19.29 C0.66 16.18, -0.28 10.34, -0.26 -0.73" stroke="#000000" stroke-width="1" fill="none"></path></g><g stroke-linecap="round"><g transform="translate(257.40815985927156 141.0805346022546) rotate(0 -0.05850860439238659 34.81337656308898)"><path d="M-1.08 -0.87 C-0.77 10.69, 0.84 57.27, 0.96 69.21 M0.56 1.29 C0.87 13.02, 0.83 59.23, 0.52 70.5" stroke="#000000" stroke-width="1" fill="none"></path></g></g><g stroke-linecap="round"><g transform="translate(379.20820868739656 203.11650740329173) rotate(59.57324935161593 -0.13343097732399656 35.7851177874021)"><path d="M-0.98 0.77 C-0.96 12.44, 0.33 58.42, 0.48 69.82 M0.71 0.13 C0.58 12.03, 0.05 59.75, -0.21 71.44" stroke="#000000" stroke-width="1" fill="none"></path></g></g><g stroke-linecap="round" transform="translate(440.40020751953125 96.00006103515625) rotate(0 35.408220894427814 54.15214451096949)"><path d="M0.97 -1.92 L72.74 -0.21 L69.83 107.77 L-0.32 109.08" stroke="none" stroke-width="0" fill="#ced4da"></path><path d="M1.94 -1.07 C19.24 -1.79, 37.91 -0.41, 70.89 1.68 M0.37 -0.35 C18.08 -0.47, 34.88 -0.02, 70.89 0.45 M70.22 1.66 C71.84 27.98, 70.09 60, 71.35 106.99 M69.94 0.18 C70.7 27.36, 71.16 54.55, 71.07 108.94 M69.17 106.48 C42.76 110.42, 15.23 107.99, -0.77 107.6 M71.52 108.54 C48.41 107.79, 25.24 106.85, -0.46 108.62 M1.84 108.65 C-1.88 63.6, -1.84 22.06, -1.14 -0.16 M0.77 107.59 C0.31 74.81, 0.13 42.6, -0.14 0.36" stroke="#000000" stroke-width="1" fill="none"></path></g><g stroke-linecap="round" transform="translate(448.5079116096231 104.25724238555313) rotate(0 27.900581767571566 41.41639447687885)"><path d="M-1.92 1.93 L55.59 -0.99 L55.27 82.52 L0.77 84.56" stroke="none" stroke-width="0" fill="#fff"></path><path d="M-1.07 0.5 C14.87 -0.12, 32.7 -0.47, 57.48 -0.96 M-0.35 0.22 C15.84 -1.05, 32.68 -0.13, 56.25 -0.26 M57.46 1.91 C54.47 18.24, 56.78 36.68, 54.48 81.96 M55.98 -0.3 C56.03 26.42, 55.48 52.77, 56.43 83.64 M53.98 81.75 C44.27 80.74, 28.5 81.6, -0.71 83.17 M56.04 82.88 C44.62 82.56, 32.51 82.76, 0.31 83.79 M0.35 81.89 C-2.55 49.85, -1.22 17.52, -0.16 0.09 M-0.71 82.72 C-0.97 60.88, -0.2 39.36, 0.36 0.49" stroke="#000000" stroke-width="1" fill="none"></path></g><g stroke-linecap="round" transform="translate(470.69458137397487 190.63492550813794) rotate(0 5.713912003219434 5.713912003219434)"><path d="M4.15 1.27 C5.53 1.04, 7.38 0.94, 8.62 1.24 C9.87 1.55, 11.25 2.33, 11.62 3.11 C12 3.88, 11.31 4.75, 10.86 5.88 C10.4 7.01, 9.84 8.98, 8.87 9.89 C7.91 10.81, 6.2 11.39, 5.06 11.35 C3.92 11.3, 2.76 10.31, 2.02 9.65 C1.28 8.99, 0.96 8.55, 0.64 7.39 C0.32 6.23, -0.48 3.93, 0.1 2.67 C0.68 1.41, 3.18 0.27, 4.11 -0.18 C5.05 -0.63, 5.53 -0.24, 5.69 -0.02 M2.33 0.25 C3.05 -0.23, 5.17 0.49, 6.71 0.71 C8.24 0.94, 10.93 0.53, 11.54 1.58 C12.15 2.64, 10.79 5.74, 10.35 7.03 C9.92 8.32, 9.73 8.76, 8.9 9.32 C8.07 9.88, 6.59 9.96, 5.37 10.39 C4.15 10.82, 2.45 12.56, 1.58 11.89 C0.71 11.23, 0.39 7.97, 0.17 6.38 C-0.05 4.79, -0.36 3.53, 0.27 2.37 C0.9 1.21, 3.51 -0.38, 3.96 -0.57 C4.41 -0.76, 2.89 0.89, 2.96 1.23" stroke="none" stroke-width="0" fill="#fff"></path><path d="M3.56 1.28 C4.49 0.77, 5.81 -0.09, 6.95 0.2 C8.09 0.49, 9.74 1.93, 10.42 3.01 C11.1 4.08, 11.26 5.66, 11.03 6.67 C10.8 7.69, 9.89 8.28, 9.03 9.08 C8.17 9.88, 6.93 11.34, 5.87 11.5 C4.82 11.65, 3.78 10.67, 2.69 9.99 C1.6 9.32, -0.29 8.46, -0.68 7.45 C-1.07 6.43, -0.63 5.26, 0.34 3.91 C1.32 2.56, 4.39 -0.09, 5.18 -0.67 C5.97 -1.25, 5.15 0.32, 5.06 0.45 M3.16 0.41 C4.16 -0.2, 6.55 -0.22, 7.89 0.06 C9.24 0.34, 10.63 0.72, 11.24 2.11 C11.85 3.5, 11.75 7.13, 11.55 8.38 C11.34 9.63, 10.99 9.32, 10 9.62 C9.01 9.91, 7.24 10.29, 5.6 10.14 C3.95 10, 0.84 9.67, 0.14 8.77 C-0.57 7.87, 1.27 5.93, 1.37 4.74 C1.47 3.56, 0.29 2.38, 0.72 1.66 C1.15 0.93, 3.56 0.81, 3.94 0.39 C4.32 -0.02, 2.72 -0.93, 3 -0.82" stroke="#000000" stroke-width="1" fill="none"></path></g><g stroke-linecap="round" transform="translate(456.78760200959323 114.80139906169325) rotate(0 19.620891367601075 9.944730235592885)"><path d="M0 0 C0 0, 0 0, 0 0 M0 0 C0 0, 0 0, 0 0 M0.34 6.23 C2.23 3.69, 2.83 2.64, 5.18 -0.2 M-0.4 6.37 C1.63 4.39, 2.86 2.21, 5.11 0.21 M-0.75 11.4 C2.75 8.34, 7.33 4.41, 9.16 -0.17 M-0.22 11.8 C3.13 9.12, 6.86 4.07, 10.5 0.43 M-1.34 16.66 C3.15 10.68, 11.75 6.13, 15.27 0.6 M-0.42 19.36 C5.39 13.15, 9.18 8.21, 15.08 0.79 M3.39 21.66 C6.61 12.32, 15.61 8.63, 20.14 -0.59 M2.38 21.6 C9.15 13.54, 14.73 7.49, 21.14 -0.21 M5.67 21.49 C13.23 16.64, 18.06 10.68, 27.46 1.42 M7.9 22.81 C12.67 15.46, 19.38 7.43, 26.83 -0.69 M13.92 23.36 C21.25 15.47, 27.7 3.73, 30.78 0.56 M13.55 22.54 C18.24 13.97, 24.62 6.86, 32.55 -0.54 M18.56 22.94 C23.69 15.43, 31.55 9.05, 37.31 -0.94 M17.71 22.15 C23.44 14.92, 31.31 7.25, 37.45 -0.52 M23.47 23.68 C31.89 13.45, 37.64 6.95, 39.35 2.5 M23.51 21.37 C30.61 15.15, 35.96 7.69, 42.11 0.86 M28.14 22.38 C32.9 18.32, 38.78 10.92, 42.32 7.41 M28.37 21.99 C33.78 16.23, 38.04 10.43, 41.11 8.18 M34.22 21.21 C36.51 19.46, 40.74 15.85, 41.57 13.55 M34.58 22.16 C36.09 19.32, 37.31 17.51, 41.13 13.59 M-0.04 19.86 C-0.04 19.86, -0.04 19.86, -0.04 19.86 M-0.04 19.86 C-0.04 19.86, -0.04 19.86, -0.04 19.86 M5.86 20.87 C4.47 17.91, 1.97 16.21, 0.08 15.3 M6.61 19.78 C4.82 19.15, 3.66 17.93, -0.01 15.14 M12.84 21.29 C8.54 17.47, 7.97 16.43, 1.15 8.55 M11.72 19.75 C8.45 16.49, 4.95 12.62, 0.18 9.56 M20.02 19.77 C12.29 15.38, 10.87 10.93, 0.8 4.53 M19.12 20.92 C12.89 14.43, 7.23 10.53, 0.54 4.34 M22.94 19.21 C17.71 16.43, 13.56 10.28, -0.28 -0.98 M24.36 20.19 C16.53 13.16, 9.83 7.87, 1.11 -0.72 M32.03 20.83 C23.99 13.66, 14.07 6.11, 6.18 -2.23 M29.73 20.67 C25.11 14.75, 21.22 10.74, 7.9 -0.44 M37.01 18.36 C29.86 12.44, 22.42 7.12, 12.02 -1.58 M36.49 20.33 C31.77 13.95, 24.56 9.1, 12.15 -0.58 M41.25 16.65 C36.98 15.94, 32.4 9.4, 17.5 0.35 M41.29 19.34 C32.74 11.6, 24.63 3.47, 18.41 0.28 M38.74 12.5 C37.58 11.24, 33.02 6.27, 25.39 0.32 M40.52 13.1 C37.11 9.11, 33.15 6.79, 24.92 -0.32 M39.73 7.16 C36.85 6.21, 33.43 3.05, 30.71 -1.98 M41.35 7.64 C36.73 4.44, 33.51 1.35, 30.7 -0.13 M40.55 2.46 C40.14 1.35, 39.47 1.01, 37.17 -0.87 M40.7 2.2 C39.61 1.36, 38.82 0.58, 37.4 -0.47" stroke="#fab005" stroke-width="0.5" fill="none"></path><path d="M-1.58 0.42 C15.39 -0.02, 32.86 -1.05, 39.12 -0.22 M-0.55 -0.84 C13.12 -0.01, 26.88 -0.34, 38.42 0.49 M37.52 0.16 C39.98 5.9, 38.1 9.87, 39.58 21.38 M38.86 0.16 C38.34 4.48, 39.91 9.26, 38.64 20.3 M41.06 18.26 C30.09 18.9, 21.45 20.02, -2 18.46 M39.23 19.22 C23.76 19.45, 10.49 20.87, 0.87 20.76 M-1.82 19 C-0.54 10.97, -0.2 4.39, -0.76 1.12 M-0.5 19.6 C0.41 12.25, 0.5 5.37, -0.96 0.96" stroke="#000000" stroke-width="1" fill="none"></path></g><g stroke-linecap="round" transform="translate(456.78760200959323 150.35915910664767) rotate(0 19.620891367601075 9.944730235592885)"><path d="M0 0 C0 0, 0 0, 0 0 M0 0 C0 0, 0 0, 0 0 M-0.43 7.2 C0.99 3.76, 3.9 2.05, 4.43 0.48 M-0.29 6.68 C1.56 4.05, 3.22 2.09, 4.83 0.53 M-0.51 11 C3.08 9.15, 5.79 4.83, 10.5 0.03 M-0.11 11.93 C4.8 8.03, 7.32 2.99, 11.09 0.15 M-1.91 16.59 C2.3 15.2, 7.93 8.22, 15.9 0.42 M0.79 19.09 C4.27 13.3, 9.06 8.3, 16.08 0.7 M2.07 19.85 C6.51 14.95, 16.61 5.84, 20.74 0.74 M2.01 22.13 C6.03 15.9, 12.04 11.04, 21.11 -0.25 M6.53 23.03 C15.38 14.02, 23.08 6.31, 27.38 0.71 M7.86 21.37 C11.95 16.75, 15.36 12.45, 25.26 1 M14.44 23.1 C20.27 15.97, 22.24 7.71, 32.56 0.23 M13.62 21.32 C19.35 13.05, 26.56 5.31, 31.46 -0.03 M18.65 22 C22.42 18.72, 27.33 12.05, 35.69 0.81 M17.86 21.41 C22.78 17.34, 27.27 11.28, 36.1 0.95 M25.43 23.72 C29.03 15.7, 36.35 5.41, 42.34 2.51 M23.12 22.5 C29.14 15.79, 33.94 11.18, 40.7 2.18 M28.76 21.87 C34.68 17.81, 37.28 13.05, 40.59 9.33 M28.36 22.69 C32.2 17.45, 36 12.79, 41.36 8.66 M33.62 21.31 C37.72 19.72, 39.96 16, 41.48 12.61 M34.57 21.98 C35.25 19.62, 36.97 17.66, 41.52 13.23 M-0.04 19.86 C-0.04 19.86, -0.04 19.86, -0.04 19.86 M-0.04 19.86 C-0.04 19.86, -0.04 19.86, -0.04 19.86 M7.11 20.23 C4.46 18.53, 3.14 17.42, 0.75 14.34 M6.03 19.97 C5.04 18.86, 3.44 17.03, 0.6 14.52 M13.57 18.79 C8.47 17.91, 6.28 15.16, -0.74 9.59 M12.03 19.97 C9.56 18.1, 6.52 15.49, 0.27 8.65 M18.19 18 C11.97 16.23, 5.8 11.41, 0.58 4.79 M19.34 20.36 C13.21 16.54, 9.6 11.93, 0.39 3.71 M23.66 19 C19.25 14.71, 11.46 6.96, 0.42 -1.08 M24.64 18.89 C13.99 10.94, 5.32 4.23, 0.68 -0.52 M31.42 21.08 C22.61 11.54, 13.18 4.48, 5.3 -2.46 M31.26 19.1 C24.3 14.92, 18.82 10.87, 7.1 -0.64 M35.09 19.81 C30.09 14.98, 25.81 10.88, 11.99 -2.04 M37.06 20.98 C27.57 12.26, 19.44 4.97, 12.99 -1.74 M39.22 18.98 C37.3 14.57, 29.61 7.76, 20.06 1.14 M41.9 18.5 C36.87 14.92, 31.49 9.73, 19.99 -1.41 M40.32 13.27 C37.52 7.91, 30.8 4.93, 26.07 -2.7 M40.92 12.67 C35.57 8.42, 31.96 5.55, 25.43 -0.75 M40.32 6.82 C39.92 4.6, 37.35 3.46, 29.9 0.1 M40.8 7.2 C37.2 4.55, 33.69 1.24, 31.75 -1.18 M40.87 2.43 C39.57 1.72, 38.98 0.28, 37.15 -0.43 M40.61 2.16 C39.55 1.47, 38.6 0.29, 37.55 -0.66" stroke="#fab005" stroke-width="0.5" fill="none"></path><path d="M0.42 -0.2 C9.75 1.99, 18.38 0.18, 39.02 0.74 M-0.84 -0.1 C10.47 0.67, 20.53 -0.6, 39.73 -0.3 M39.41 0.57 C39.96 6.3, 38.56 15.56, 40.73 18.15 M39.4 -0.94 C39.44 6.96, 39.99 12.05, 39.66 19.07 M37.61 19.28 C30.27 19.54, 23.19 18.25, -1.43 21.3 M38.57 18.94 C26.08 20.2, 14.81 20.76, 0.87 20.81 M-0.88 19.39 C-1.04 13.42, 0.18 6.5, 1.12 1.53 M-0.29 20.16 C-0.12 15.7, 0.5 9.82, 0.96 -0.1" stroke="#000000" stroke-width="1" fill="none"></path></g><g stroke-linecap="round"><g transform="translate(374.40828192958384 332.9162205380575) rotate(117.15015129992712 0.14379582008905345 35.11415941717104)"><path d="M0.82 0.76 C0.79 12.4, -0.79 58.75, -0.96 70.11 M-0.21 0.12 C0.2 11.36, 1.4 56.6, 1.24 68.21" stroke="#000000" stroke-width="1" fill="none"></path></g></g><g stroke-linecap="round" transform="translate(432.39996337890625 400.1999816894531) rotate(0 35.408220894427814 54.15214451096949)"><path d="M-1.16 1.59 L71.79 1.23 L71.32 107.15 L-0.48 107.44" stroke="none" stroke-width="0" fill="#ced4da"></path><path d="M0.29 -1.19 C25.3 -1.68, 51.71 0.41, 69.49 -0.68 M-0.37 0.68 C19.54 1.3, 37.76 1.28, 69.93 -0.21 M69.65 -0.13 C72.7 40.69, 72.91 77.85, 71.26 106.54 M71.12 0.16 C71.24 33.91, 70.75 69.14, 70.1 108.24 M68.83 107.23 C48.24 106.3, 24.74 108.52, 0.55 107.66 M71.19 107.94 C51.25 109.85, 30.64 109.07, -0.53 108.15 M-0.59 110.16 C1.63 76.49, -0.33 43, -0.33 1.82 M-0.7 107.51 C-1.11 69.39, 0.13 31.15, 0.23 0.61" stroke="#000000" stroke-width="1" fill="none"></path></g><g stroke-linecap="round" transform="translate(440.5076674689981 408.45716303985) rotate(0 27.900581767571566 41.41639447687885)"><path d="M1.59 0.97 L57.03 0.5 L54.65 82.35 L-0.87 81.08" stroke="none" stroke-width="0" fill="#fff"></path><path d="M-1.19 -0.86 C12.21 -0.69, 27.53 -1.41, 55.12 -0.55 M0.68 0.25 C20.89 -0.62, 41.06 -0.68, 55.59 0.63 M55.67 1.31 C57.95 30.69, 55.77 58.79, 54.03 83.18 M55.96 0.8 C55.37 22.26, 56.25 43.18, 55.74 83.12 M54.73 83.55 C32.61 82.79, 13.57 82.83, -0.64 82.54 M55.43 83.48 C35.94 83.29, 14.42 82.51, -0.16 82.84 M1.86 83.86 C0.88 61.63, -0.07 41.95, 1.82 1.13 M-0.8 82.06 C-0.82 55.87, -0.47 28.2, 0.61 -0.58" stroke="#000000" stroke-width="1" fill="none"></path></g><g stroke-linecap="round" transform="translate(462.69433723334987 494.8348461624348) rotate(0 5.713912003219434 5.713912003219434)"><path d="M6.26 0.05 C7.32 0.18, 8.53 0.58, 9.35 1.63 C10.16 2.68, 10.89 5.04, 11.13 6.35 C11.37 7.67, 11.56 8.72, 10.79 9.52 C10.02 10.32, 7.83 10.8, 6.53 11.17 C5.22 11.53, 3.87 12.2, 2.95 11.71 C2.03 11.22, 1.36 9.65, 1.01 8.25 C0.66 6.86, 0.72 4.69, 0.85 3.33 C0.98 1.98, 0.66 0.54, 1.81 0.14 C2.95 -0.25, 6.45 0.7, 7.72 0.96 C8.98 1.22, 9.3 1.8, 9.41 1.71 M8.3 -0.42 C9.22 -0.3, 10.16 1.46, 10.43 2.45 C10.71 3.43, 10.34 4.43, 9.98 5.49 C9.61 6.55, 9.17 7.61, 8.23 8.8 C7.3 9.99, 5.63 12.66, 4.37 12.65 C3.11 12.64, 1.4 9.95, 0.7 8.74 C-0.01 7.53, -0.11 6.39, 0.14 5.38 C0.39 4.37, 1.58 3.79, 2.19 2.69 C2.79 1.6, 2.77 -0.82, 3.79 -1.18 C4.81 -1.53, 7.86 0.32, 8.32 0.57 C8.78 0.82, 6.89 0.37, 6.57 0.33" stroke="none" stroke-width="0" fill="#fff"></path><path d="M3.62 -0.16 C4.73 -0.5, 6.82 0.65, 7.9 1.17 C8.97 1.69, 9.41 1.92, 10.07 2.97 C10.74 4.03, 11.97 6.38, 11.9 7.49 C11.83 8.59, 10.66 9.09, 9.65 9.6 C8.65 10.1, 7.22 10.39, 5.85 10.52 C4.48 10.64, 2.31 10.92, 1.43 10.35 C0.54 9.79, 0.7 8.48, 0.54 7.14 C0.38 5.8, -0.33 3.4, 0.48 2.33 C1.28 1.27, 4.46 1.2, 5.37 0.76 C6.27 0.33, 5.97 -0.11, 5.92 -0.28 M6.66 0.27 C8.12 0.17, 10.09 0.06, 10.96 0.99 C11.83 1.92, 12.15 4.53, 11.87 5.84 C11.6 7.16, 10.03 7.79, 9.32 8.89 C8.61 9.99, 8.66 12.36, 7.63 12.45 C6.6 12.53, 4.46 10.03, 3.14 9.4 C1.83 8.77, 0.47 9.47, -0.27 8.67 C-1 7.88, -1.74 5.83, -1.25 4.63 C-0.77 3.42, 1.49 2.26, 2.65 1.45 C3.81 0.65, 4.95 -0.21, 5.73 -0.2 C6.5 -0.18, 7.11 1.5, 7.27 1.54" stroke="#000000" stroke-width="1" fill="none"></path></g><g stroke-linecap="round" transform="translate(448.78735786896823 419.0013197159901) rotate(0 19.620891367601075 9.944730235592885)"><path d="M0 0 C0 0, 0 0, 0 0 M0 0 C0 0, 0 0, 0 0 M-0.7 6.13 C1.01 4.23, 3.15 2.67, 4.71 0.54 M-0.57 6.18 C1.95 3.74, 3.61 1.8, 5.04 0.01 M-0.58 10.77 C4.26 9.45, 5.53 4.21, 11.14 1.45 M-0.02 11.5 C4.04 7.62, 6.59 3.9, 9.89 -0.14 M-0.41 19.1 C6.18 10.9, 9.33 7.24, 15.49 1 M-0.2 18.63 C5.28 13.53, 8.4 8.26, 14.69 -0.15 M3.49 21.18 C4.45 18.34, 11.89 11.7, 22.51 -0.48 M1.96 21.16 C7.29 16.59, 10.22 11.67, 21.26 0.74 M7.91 20.41 C12.54 14.13, 22.17 7.42, 27.82 0.93 M7.61 21.53 C13.3 14.28, 18.22 8.75, 26.5 0.05 M13.92 20.63 C18.94 15.03, 22.91 9.86, 33.6 -1.38 M13.63 22.67 C17.56 15.42, 22.48 8.63, 32.24 -0.56 M16.83 20.23 C23.37 15.44, 29.56 11.46, 37.12 1.17 M17.02 22.63 C21.97 17.32, 26.82 12.32, 36.63 -0.53 M21.75 21.32 C29 16.3, 33.84 10.53, 42.17 1.39 M23.56 21.05 C28.41 14.62, 34.66 8.8, 41.74 0.87 M29.82 21.26 C32.9 18.88, 36.78 13.29, 39.46 9.59 M28.25 23.01 C31.9 18.33, 33.85 16.11, 41.03 7.38 M33.71 21.76 C37.27 18.29, 38.28 16.86, 42.22 12.9 M33.67 21.84 C36.66 18.21, 40.11 14.69, 41.82 13.92 M-0.04 19.86 C-0.04 19.86, -0.04 19.86, -0.04 19.86 M-0.04 19.86 C-0.04 19.86, -0.04 19.86, -0.04 19.86 M6 20.43 C4.4 18.19, 2.77 16.64, 0.28 14.99 M6 20.38 C4.84 18.67, 2.59 16.79, 0.59 14.84 M10.6 19.97 C8.99 18.33, 4.56 13.58, 0.49 8.43 M12.68 20.1 C7.38 16.51, 2.93 12.05, -0.61 8.95 M17.91 21.85 C11.6 16.37, 9.85 11.33, 0.02 3.26 M17.64 19.85 C13.33 15.2, 7.41 9.74, -0.67 3.61 M24.62 20.07 C18.86 11.4, 9.03 6.18, 1.76 0.4 M23.96 19.98 C17.52 15.1, 12.08 9.28, 0.99 -1.34 M29.28 21.29 C24.5 11.53, 16.79 5.53, 5.76 -1.15 M30.86 20.37 C22.38 13.8, 13.68 6.34, 7.18 -0.45 M35.73 21.84 C32.82 16.56, 25.95 9.73, 14.39 -0.73 M36.74 19.5 C29.95 14.6, 24.67 9.55, 13.1 -0.65 M39.1 19.83 C34.45 10.03, 24.45 2.84, 17.15 -0.41 M40.85 17.99 C36.29 13.68, 30.93 9.39, 19.05 -1.15 M38.87 13.93 C33.39 8.49, 29.03 4.3, 24.98 0.62 M40.48 13.71 C36.05 9.45, 31.48 4.65, 23.86 -0.53 M40.32 8.81 C38.89 6.28, 35.8 4.5, 31.55 0.2 M41.14 7.35 C38.2 5.25, 35.47 2.83, 30.78 -1.36 M40.85 2.28 C39.72 1.13, 38.52 0.66, 37.77 -0.67 M40.53 2.22 C39.96 1.56, 39.39 0.91, 37.63 -0.32" stroke="#fab005" stroke-width="0.5" fill="none"></path><path d="M-1.01 -0.61 C13.41 -1.16, 24 -0.38, 40.48 -1.68 M0.7 -0.83 C11.01 -0.98, 20.44 0.54, 39.76 0.98 M40.58 1.52 C38.39 5.25, 37.47 9.95, 38.54 19.95 M38.79 0.31 C39.69 5.86, 39.21 13.43, 40.05 19.78 M37.31 20.4 C31.66 20.58, 22.86 19.74, 1.43 21.76 M40.13 20.14 C26.11 19.61, 12.61 20.15, -0.55 19.7 M0.72 18.96 C-0.41 14.18, 1.62 10.25, 0.62 1.19 M-0.32 20.35 C0.19 15.55, 0.77 10.17, 0.79 0.48" stroke="#000000" stroke-width="1" fill="none"></path></g><g stroke-linecap="round" transform="translate(448.78735786896823 454.55907976094454) rotate(0 19.620891367601075 9.944730235592885)"><path d="M0 0 C0 0, 0 0, 0 0 M0 0 C0 0, 0 0, 0 0 M-0.53 6.12 C0.41 5.51, 1.69 3.58, 5.16 1.05 M-0.48 6.52 C0.48 4.98, 1.92 4.07, 4.64 0.47 M-1.14 12.82 C5.48 6.11, 8.18 3.46, 12.12 0.12 M-0.41 12.76 C3.18 7.79, 6.93 2.73, 10.52 0.17 M0.53 19.78 C4.25 10.91, 12.5 4.5, 16.29 0.15 M0.06 19.14 C3.83 13.56, 7.41 9.27, 15.14 -0.41 M1.6 19.92 C11.19 14.36, 16.97 5.81, 20.84 -1.83 M1.58 22.78 C6.76 15.85, 11.58 10.13, 22.07 0.67 M5.45 20.3 C12.4 16.92, 18.94 12.03, 26.89 0.59 M6.57 22.3 C12.16 14.29, 19.48 8.61, 26.01 0.01 M11.71 22.76 C18.4 14.19, 25.49 8.87, 30.61 -0.47 M13.76 21.24 C19.43 12.86, 25.59 6.4, 31.43 -0.54 M15.94 22.69 C21.74 18.38, 28.35 11.07, 37.79 -1.48 M18.33 22.02 C21.78 18.28, 25.52 12.68, 36.09 -0.02 M23.07 22.32 C28.01 17.4, 32.22 12.69, 41.22 1.45 M22.8 21.29 C27.97 15.89, 33.78 9.75, 40.71 1.77 M27.63 22.28 C33.8 17.59, 36.78 12.05, 42.77 6.32 M29.38 22.77 C31.98 17.3, 37.02 12.89, 40.56 8.05 M34.17 22.54 C36.17 18.06, 40.21 16.34, 40.83 14.45 M34.25 21.32 C35.34 20.3, 36.56 18.91, 41.85 13.05 M-0.04 19.86 C-0.04 19.86, -0.04 19.86, -0.04 19.86 M-0.04 19.86 C-0.04 19.86, -0.04 19.86, -0.04 19.86 M6.67 20.16 C4.86 19.31, 3.67 17.6, 0.45 14.9 M6.62 20.39 C5.16 18.8, 3.6 18.09, 0.29 14.83 M12.25 20.16 C10.27 16.32, 5.33 14.57, -0.87 10.01 M12.38 19.4 C8.02 15.3, 2.66 11.36, -0.35 9.05 M20.27 18.24 C13.43 16.53, 7.06 9.77, -0.69 4.52 M18.26 20.61 C12.79 15.43, 6.75 9.27, -0.34 4.24 M24.52 21.27 C16.96 13.92, 12.55 11.57, 1.8 -1.69 M24.44 18.83 C19.32 14.73, 13.41 10.81, 0.06 -0.43 M31.88 21.46 C24.29 17.24, 20.27 10.19, 6.38 0.32 M30.96 19.82 C23.06 12.35, 14.66 6.42, 7.08 -1.47 M38.57 20.9 C30.88 13.1, 21.74 10.3, 12.84 -1.89 M36.23 19.22 C29.41 13.85, 22.58 8.32, 12.92 -0.22 M42.4 19.82 C33.5 12.61, 27.51 6.26, 19.3 -2.01 M40.56 18.87 C33.03 11.8, 25.39 4.88, 18.56 0.12 M41.75 11.49 C36.55 8.85, 32.84 4.76, 26.37 -1.21 M41.53 12.81 C36.8 8.9, 31.49 4.04, 25.21 -1.58 M41.97 8.15 C38 4.48, 34.93 2.32, 32.08 -1.19 M40.51 7.65 C37.83 4.99, 34.73 2.33, 30.52 -0.53 M40.69 2.33 C39.44 1.31, 38.87 0.71, 37.35 -0.85 M40.63 2.2 C39.47 1.32, 38.29 0.37, 37.7 -0.45" stroke="#fab005" stroke-width="0.5" fill="none"></path><path d="M-0.61 1.07 C8.11 -0.48, 18.32 1.43, 37.57 -0.74 M-0.83 0.68 C13.56 -0.49, 29.53 0.25, 40.22 -0.59 M40.76 -0.84 C39.82 4.08, 39.72 10.97, 39.3 20.5 M39.55 0.42 C38.69 6.23, 39.69 13.39, 39.14 18.9 M39.76 20.18 C30.12 18.87, 19.61 20.95, 1.87 20.64 M39.49 19.99 C28.37 20.08, 18.58 19.68, -0.19 19.6 M-0.93 19.66 C-0.43 13.88, 1.02 4.88, 1.19 -1.4 M0.46 19.92 C0.38 16.12, -0.42 11.92, 0.48 0.61" stroke="#000000" stroke-width="1" fill="none"></path></g><g stroke-linecap="round"><g transform="translate(259.60823310145906 401.11638533297935) rotate(180 0.2980271688289804 34.72164264775813)"><path d="M1.01 0.07 C0.86 11.58, -0.51 57.44, -0.84 69.13 M0.08 -0.93 C0.31 10.72, 1.21 58.87, 1.43 70.38" stroke="#000000" stroke-width="1" fill="none"></path></g></g><g stroke-linecap="round" transform="translate(225.00006103515625 492.3999938964844) rotate(0 35.408220894427814 54.15214451096949)"><path d="M0.69 -1.19 L71.44 -1.95 L70.04 107.14 L1.44 109.92" stroke="none" stroke-width="0" fill="#ced4da"></path><path d="M-1.33 -1.24 C14.38 0.51, 30.67 -0.58, 71.93 0.23 M-0.87 0.5 C19.93 0.61, 42.34 0.25, 70.46 -0.41 M70.16 1.34 C68.97 39.92, 71.27 81.17, 70.2 108.11 M71.59 -0.56 C71.12 36.76, 69.86 73.23, 70.11 107.95 M71.1 108.59 C53.86 110.01, 36.15 108.89, 1.54 108.37 M70.87 109 C49.75 108.26, 30.84 108.44, 0.39 107.82 M-1.48 106.9 C1.26 86.66, 2.36 62.12, -1.14 -1.05 M-0.76 108.62 C-0.71 70.16, -1.38 31.82, -0.29 -0.1" stroke="#000000" stroke-width="1" fill="none"></path></g><g stroke-linecap="round" transform="translate(233.10776512524808 500.65717524688125) rotate(0 27.900581767571566 41.41639447687885)"><path d="M-1.19 0.62 L53.86 -0.78 L54.64 84.27 L1.61 81.34" stroke="none" stroke-width="0" fill="#fff"></path><path d="M-1.24 -0.9 C17.25 0.46, 32.64 1.48, 56.03 -0.12 M0.5 -0.9 C18.24 1.16, 35.48 0.12, 55.39 0.66 M57.15 -1.75 C56.02 24.71, 57.66 47.71, 55.61 83.53 M55.24 0.85 C56.67 20.3, 56.85 40.72, 55.45 82.16 M56.09 82.34 C42.84 81.17, 26.89 84.45, 0.07 82.57 M56.5 82.07 C41.65 83.48, 27.8 83.26, -0.48 81.88 M-1.41 83.41 C0.48 64.86, -1.93 42.39, -1.05 1.12 M0.32 82.75 C0.78 52.46, 0.97 23.32, -0.1 0.35" stroke="#000000" stroke-width="1" fill="none"></path></g><g stroke-linecap="round" transform="translate(255.29443488959987 587.0348583694661) rotate(0 5.713912003219434 5.713912003219434)"><path d="M6.97 -0.68 C7.99 -0.46, 9.31 1.59, 9.92 2.67 C10.53 3.74, 10.65 4.53, 10.64 5.79 C10.62 7.04, 10.49 9.4, 9.84 10.18 C9.2 10.96, 8.14 10.54, 6.77 10.46 C5.41 10.38, 2.66 10.2, 1.64 9.7 C0.63 9.21, 0.93 8.73, 0.69 7.5 C0.44 6.26, -0.34 3.48, 0.19 2.29 C0.72 1.1, 2.51 0.77, 3.87 0.34 C5.23 -0.1, 7.49 -0.33, 8.34 -0.31 C9.18 -0.28, 9.06 0.22, 8.94 0.49 M3.46 -0.62 C4.66 -0.59, 7.99 0.83, 9.03 1.66 C10.07 2.49, 9.41 3.63, 9.69 4.36 C9.97 5.08, 10.88 4.95, 10.71 6.04 C10.54 7.13, 9.44 9.76, 8.65 10.88 C7.86 12, 6.99 12.78, 5.95 12.75 C4.92 12.71, 3.43 11.56, 2.44 10.67 C1.44 9.78, 0.44 8.71, -0.01 7.39 C-0.45 6.08, -0.95 3.96, -0.24 2.77 C0.47 1.59, 3.78 0.77, 4.25 0.3 C4.72 -0.18, 2.55 -0.02, 2.61 -0.08" stroke="none" stroke-width="0" fill="#fff"></path><path d="M7.36 0.22 C8.5 0.42, 9.41 1.49, 10.1 2.28 C10.78 3.06, 11.39 3.9, 11.47 4.95 C11.54 6, 11.23 7.39, 10.52 8.57 C9.82 9.75, 8.49 11.75, 7.25 12.03 C6 12.31, 4.27 10.88, 3.05 10.25 C1.82 9.62, 0.35 9.34, -0.1 8.23 C-0.56 7.11, -0.16 4.69, 0.3 3.55 C0.75 2.41, 1.61 1.92, 2.62 1.39 C3.63 0.85, 5.47 0.35, 6.35 0.36 C7.22 0.36, 7.79 1.36, 7.86 1.41 M7.88 -0.76 C9.37 -0.63, 10.88 1.51, 11.37 2.75 C11.86 3.99, 11.2 5.66, 10.81 6.68 C10.42 7.7, 9.88 8.18, 9.03 8.87 C8.17 9.56, 6.77 10.49, 5.69 10.83 C4.6 11.16, 3.38 11.46, 2.52 10.87 C1.67 10.29, 0.69 8.7, 0.56 7.29 C0.43 5.89, 1.27 3.34, 1.74 2.45 C2.22 1.55, 2.58 2.35, 3.42 1.92 C4.25 1.49, 6.34 0.14, 6.76 -0.11 C7.19 -0.36, 5.97 0.11, 5.96 0.41" stroke="#000000" stroke-width="1" fill="none"></path></g><g stroke-linecap="round" transform="translate(241.38745552521823 511.20133192302137) rotate(0 19.620891367601075 9.944730235592885)"><path d="M0 0 C0 0, 0 0, 0 0 M0 0 C0 0, 0 0, 0 0 M0.43 6.71 C1.4 4.31, 1.78 3.83, 5.05 -0.05 M-0.51 6.04 C1.1 4.59, 2.69 3.06, 5.08 0.62 M1.27 13.17 C1.54 8.5, 4.11 4.24, 10.8 -1.14 M-0.2 12.41 C3.68 7.9, 7.47 3.48, 10.2 0.55 M1.04 17.16 C5.11 13.52, 10.7 8.16, 17.25 0.12 M0.82 18.49 C5.08 13.37, 8.75 7.28, 16.1 -0.24 M3.82 22.39 C9.31 13.91, 16.27 7.58, 22.72 -0.75 M1.58 21.62 C7.75 14.79, 13.24 8.07, 20.33 0.28 M7.95 23.15 C12.7 14.98, 20.88 9.12, 25.35 -1.52 M7.64 22.5 C14.04 15.02, 20.3 7.13, 27.1 0.47 M14.39 21.45 C16.47 14.87, 21.42 10.77, 33.64 -0.9 M13.29 22.35 C19.59 14.32, 23.82 7.59, 30.95 -0.62 M19.04 21.82 C23.14 17.91, 27.41 14.56, 36.74 -1.22 M17.81 22.75 C25.44 14.18, 32.68 4.81, 36.22 0.61 M22.19 20.66 C29.96 12.88, 36.21 6.42, 41.78 0.57 M24.27 21.05 C26.92 17.54, 29.76 13.24, 40.7 0.55 M28.65 21.78 C34.16 16.44, 38.57 13.27, 40.1 6.62 M28.05 21.18 C33.19 16.6, 37.36 11.78, 41.23 8.09 M33.24 21.83 C37.29 20.21, 39.29 16.32, 41.49 12.8 M34.49 21.4 C35.8 20.42, 36.85 18.37, 40.93 13.92 M-0.04 19.86 C-0.04 19.86, -0.04 19.86, -0.04 19.86 M-0.04 19.86 C-0.04 19.86, -0.04 19.86, -0.04 19.86 M6.27 20.55 C4.38 18.93, 2.21 16.65, 0.33 14.27 M6.25 20.25 C4.74 19.07, 3.6 17.53, -0.07 14.71 M12.37 21.26 C7.75 16.93, 7.02 13.89, 0.66 8.8 M11.99 19.56 C7.85 15.9, 4.49 13.81, 0.41 9.14 M20.2 20.71 C14.96 14.97, 9.14 10.45, 2.16 5.19 M18.24 20.28 C12.39 13.88, 5.19 8.14, 0.66 4.74 M23.25 18.69 C16.19 14.32, 8.38 5.83, -0.32 -2.57 M24.99 20.06 C16.53 14.27, 10.09 8.17, -0.08 -0.91 M31.75 17.85 C23.19 13.28, 18.25 6, 7.74 1.31 M30.76 19.37 C26.25 14.52, 20.17 11.71, 7.69 -0.11 M36.26 19.44 C33.49 15.26, 28.23 10.47, 11.45 0.54 M37.03 20.04 C28.76 13.99, 20.31 6.42, 11.74 -0.54 M39.94 19.82 C34.3 11.87, 24.46 2.79, 17.28 -1.39 M41.71 17.56 C32.79 11.22, 24.92 4.12, 19.12 -0.23 M41.52 13.45 C34.09 6.13, 30.33 3.7, 25.2 0.48 M40.44 13.15 C35.85 9.57, 31.35 5.4, 25.65 -1.62 M41.79 7.21 C37.64 6.7, 35.84 2.36, 31.74 -0.66 M40.95 7.94 C38.56 5.3, 35.21 2.37, 31.49 -1.33 M40.64 2.52 C39.9 1.53, 38.53 0.64, 37.61 -0.42 M40.53 2.03 C39.63 1.58, 39.05 0.66, 37.56 -0.51" stroke="#fab005" stroke-width="0.5" fill="none"></path><path d="M0.77 0.09 C8.84 1.29, 18.54 0.06, 39.55 0.08 M0.64 0.67 C8.64 -0.01, 16.3 1.01, 39.16 -0.11 M39.55 0.54 C41.32 4.7, 39.18 11.32, 38.25 20.86 M39.71 -0.41 C39.77 6.81, 38.78 14.35, 38.9 19.67 M41.11 18.15 C27.65 21.33, 14.64 19.53, -0.98 20.17 M39.1 20.51 C27.29 19.98, 14.79 18.63, -0.63 19.89 M0.47 21.56 C-1.78 14.26, -0.91 12, 1.14 -0.94 M0.39 19.13 C0.52 15.15, -0.16 11.33, -0.59 0.31" stroke="#000000" stroke-width="1" fill="none"></path></g><g stroke-linecap="round" transform="translate(241.38745552521823 546.7590919679758) rotate(0 19.620891367601075 9.944730235592885)"><path d="M0 0 C0 0, 0 0, 0 0 M0 0 C0 0, 0 0, 0 0 M0.05 6.65 C0.99 3.61, 3.85 2.5, 4.58 0.28 M-0.62 6.26 C1.43 4.35, 3.39 2.51, 5.25 0.21 M1.26 10.78 C3.7 6, 6.55 3.1, 9.52 0.83 M0.51 11.83 C3.07 8.74, 5.71 5.23, 11.22 -0.08 M-1.41 19.18 C6.27 13.18, 12.2 6.26, 15.42 0.01 M-0.08 19.14 C4.43 13.04, 7.96 8.48, 15.05 0.75 M2.81 22.58 C9.26 14.34, 17.84 6.05, 20.58 -0.06 M2.03 21.5 C6.46 16.01, 11 10.24, 21.61 0.16 M8.19 21.55 C13.07 16.61, 20.28 7.4, 24.44 1.41 M7.54 22.14 C12.79 15.88, 17.61 11.61, 26.43 0 M12.53 20.43 C19.26 11.57, 28.5 6.34, 31.1 0.09 M13.43 22.52 C16.97 15.24, 21.83 9.69, 31.37 -0.95 M17.53 23.44 C24.95 15.9, 32.92 6.71, 35.4 2.21 M18.46 22.08 C23.56 16.05, 27.86 10.07, 37.23 0.87 M22.41 21.8 C27.2 15.78, 33.3 10.47, 40.41 -0.49 M22.79 21.71 C30.51 12.69, 37.42 5, 40.39 2.01 M28.16 23.21 C31.52 19.08, 37.05 13.25, 39.8 8.6 M27.56 22.57 C31.97 17.82, 36.17 13.06, 41.27 7.86 M34.24 22.7 C37.84 19.48, 39.17 15.83, 40.73 12.42 M33.81 21.85 C36.48 19.14, 38.08 16.87, 41.85 13.92 M-0.04 19.86 C-0.04 19.86, -0.04 19.86, -0.04 19.86 M-0.04 19.86 C-0.04 19.86, -0.04 19.86, -0.04 19.86 M6.79 19.92 C4.84 17.88, 2.21 16.82, -0.28 14.31 M6.49 19.85 C5.02 18.85, 3.27 17.27, 0.16 14.71 M13.54 18.54 C9.42 18.6, 6.38 15.73, -0.5 9.19 M11.84 19.23 C6.76 15.62, 3.38 12.53, -0.15 9.05 M19.12 21.71 C10.6 14.99, 3.45 9.85, 1.24 5.59 M18.69 20.72 C11.62 14.5, 5.16 9.03, 0.79 4.8 M23.14 20.09 C18.68 14.11, 10.09 5.77, -1.17 -1.06 M24.51 18.68 C18.48 13.52, 11.71 7.88, 0.49 -0.73 M28.44 19.61 C23.72 16.35, 16.21 9.61, 8.84 -2.12 M29.96 20.73 C23.05 14.1, 18.09 9.13, 7.43 -1.46 M36.16 21.53 C30.1 15.93, 23.63 8.49, 14.11 -0.18 M36.77 20.18 C29.42 13.01, 21 5.5, 13.03 0.08 M42.39 20.22 C37.85 15.01, 31.8 8.67, 18.32 0.76 M40.13 18.34 C34.07 12.57, 26.93 6.33, 19.48 -0.06 M41.26 11.9 C34.38 9.9, 32.3 5.38, 26.22 -1.12 M40.97 12.59 C37.73 9.7, 34.12 7.6, 24.13 -1.34 M40.38 7.07 C39.65 5.74, 35.04 4.02, 31.22 -0.78 M41.1 8.4 C37.17 4.67, 32.99 1.53, 30.55 -0.72 M40.93 2.41 C39.86 1.19, 38.87 0.65, 37.59 -0.69 M40.44 1.97 C39.78 1.39, 38.65 0.65, 37.51 -0.67" stroke="#fab005" stroke-width="0.5" fill="none"></path><path d="M0.09 -0.32 C10.45 0.08, 18.55 0.16, 39.32 -1.74 M0.67 0.28 C13.38 -0.67, 28.13 -0.33, 39.13 -0.33 M39.79 1.94 C38.45 7.11, 39.77 13.62, 40.21 21.44 M38.83 0.64 C38.71 4.5, 38.74 9.35, 39.02 20.03 M37.5 20.63 C28.45 20.33, 14.31 19.28, 0.28 20 M39.86 19.92 C25.13 19.35, 9.28 19.21, 0 19.15 M1.67 17.97 C-1.19 14.27, 1.05 11.89, -0.94 -1.51 M-0.76 20.47 C-0.27 13.2, 0.36 6.11, 0.31 -0.97" stroke="#000000" stroke-width="1" fill="none"></path></g><g stroke-linecap="round"><g transform="translate(141.00813544520895 340.71629988376037) rotate(237.36701333675765 -0.35252452421934777 34.436039929408594)"><path d="M-0.91 -0.06 C-0.87 11.6, -0.44 58.58, -0.37 70.01 M0.81 -1.14 C0.72 10.14, -1.13 56.33, -1.52 68.07" stroke="#000000" stroke-width="1" fill="none"></path></g></g><g stroke-linecap="round" transform="translate(20.59991455078125 409.5999450683594) rotate(0 35.408220894427814 54.15214451096949)"><path d="M-1.21 -0.65 L70.02 -0.62 L72.12 107.44 L-1.09 110.2" stroke="none" stroke-width="0" fill="#ced4da"></path><path d="M-0.36 1.31 C18.09 -0.05, 39.79 2.08, 69.3 0.69 M-0.18 0.32 C27.11 1, 54.33 0.03, 71.6 0.65 M71.69 -0.58 C69.08 38.02, 69.04 74.24, 69.55 107.06 M71.79 0.19 C71.12 40.26, 71.87 80.09, 70.96 107.35 M68.98 107.28 C48.59 109.44, 24.72 108.26, -0.36 106.5 M70.03 109.04 C51.44 108.4, 33.76 108.6, -0.08 108.34 M-0.61 109.24 C0.08 70.72, -2.29 35.87, 0.79 0.46 M0.76 108.17 C0.45 67.55, 0.8 27.13, 0.62 0.92" stroke="#000000" stroke-width="1" fill="none"></path></g><g stroke-linecap="round" transform="translate(28.70761864087308 417.85712641875625) rotate(0 27.900581767571623 41.41639447687885)"><path d="M-0.65 -0.79 L55.18 1.3 L54.93 81.74 L1.9 83.02" stroke="none" stroke-width="0" fill="#fff"></path><path d="M1.31 -2 C16.61 -0.28, 35.6 -1.42, 56.49 1.79 M0.32 -0.48 C13.05 -0.75, 24.26 0.88, 56.45 0.38 M55.22 -0.68 C56.76 16.02, 56.38 32.21, 54.56 84.25 M56 -0.07 C56.09 28.42, 55.73 55.63, 54.85 83.17 M54.77 84.25 C35.54 83.51, 12.28 81.96, -1.8 82.07 M56.54 81.99 C35.15 82.4, 14.77 82.32, 0.03 83.22 M0.94 83.52 C-0.76 51.67, 1.12 24.67, 0.46 1.49 M-0.14 83.22 C0.49 59.18, 0.65 34.68, 0.92 -0.61" stroke="#000000" stroke-width="1" fill="none"></path></g><g stroke-linecap="round" transform="translate(50.89428840522487 504.23480954134106) rotate(0 5.713912003219434 5.713912003219434)"><path d="M5.76 0.39 C6.99 0.31, 9.07 0.42, 9.95 1.22 C10.83 2.02, 10.86 4.05, 11.04 5.2 C11.21 6.36, 11.7 7.08, 11 8.15 C10.3 9.21, 7.96 11.07, 6.82 11.6 C5.67 12.12, 5.03 11.83, 4.14 11.31 C3.26 10.8, 2.32 9.48, 1.51 8.51 C0.7 7.53, -0.78 6.61, -0.71 5.48 C-0.64 4.34, 0.78 2.5, 1.91 1.72 C3.04 0.93, 5.27 0.91, 6.07 0.76 C6.88 0.62, 6.56 0.96, 6.73 0.83 M5.77 -0.58 C6.87 -0.52, 6.9 1.65, 7.82 2.23 C8.73 2.8, 10.59 1.95, 11.25 2.88 C11.91 3.82, 12.23 6.32, 11.77 7.85 C11.31 9.37, 9.63 11.43, 8.48 12.01 C7.32 12.6, 5.98 11.55, 4.85 11.34 C3.71 11.13, 2.44 11.64, 1.66 10.76 C0.87 9.89, 0.29 7.41, 0.11 6.09 C-0.06 4.77, 0.06 3.82, 0.62 2.83 C1.18 1.84, 2.77 0.67, 3.46 0.16 C4.16 -0.35, 4.5 -0.56, 4.79 -0.24" stroke="none" stroke-width="0" fill="#fff"></path><path d="M4.61 0.36 C5.94 -0.08, 8.93 -0.34, 10.01 0.3 C11.09 0.94, 10.89 2.95, 11.08 4.2 C11.27 5.44, 11.52 6.8, 11.15 7.79 C10.78 8.77, 10.06 9.41, 8.86 10.1 C7.67 10.8, 5.2 12.12, 3.99 11.97 C2.78 11.83, 2.42 10.49, 1.59 9.25 C0.77 8, -1.05 5.85, -0.94 4.52 C-0.84 3.19, 1.19 1.91, 2.22 1.28 C3.25 0.64, 4.7 0.82, 5.23 0.71 C5.76 0.6, 5.45 0.76, 5.4 0.63 M9.16 0.65 C10.17 0.94, 10.04 2.05, 10.57 2.99 C11.1 3.93, 12.52 5.36, 12.35 6.31 C12.18 7.26, 10.6 7.6, 9.57 8.69 C8.54 9.78, 7.68 12.86, 6.19 12.86 C4.69 12.86, 1.74 9.54, 0.59 8.69 C-0.55 7.83, -0.95 8.56, -0.69 7.73 C-0.43 6.9, 1.31 5, 2.14 3.72 C2.97 2.44, 3.56 0.72, 4.26 0.06 C4.96 -0.59, 5.61 -0.34, 6.35 -0.22 C7.09 -0.1, 8.7 0.43, 8.7 0.8" stroke="#000000" stroke-width="1" fill="none"></path></g><g stroke-linecap="round" transform="translate(36.98730904084323 428.40128309489637) rotate(0 19.620891367601075 9.944730235592885)"><path d="M0 0 C0 0, 0 0, 0 0 M0 0 C0 0, 0 0, 0 0 M0.28 6.82 C0.82 4.94, 2.74 3.2, 4.59 0.28 M-0.59 6.6 C1.26 4.41, 2.78 2.98, 4.63 0.18 M-0.73 12.27 C5 7.48, 6.13 2.11, 10.26 -0.61 M0.78 12.52 C1.66 9.27, 3.76 6.65, 11.21 -0.6 M-0.49 17.56 C3.53 12.86, 10.88 5.86, 14.26 -1.63 M-0.82 19.02 C3.66 14.88, 7.22 10.42, 14.63 -0.21 M2.82 23.4 C10.09 13.75, 16.15 5.74, 20.63 0.4 M1.41 21.04 C7.43 15.28, 13.4 9.38, 20.37 -0.84 M6.57 22 C14.34 16.85, 18.51 6.64, 26.48 -0.57 M7.88 21.61 C12.3 16.54, 17.89 9.37, 27.21 -0.32 M12.31 21.42 C20.97 14.55, 26.08 7.95, 30.47 -1.73 M12.44 20.82 C20.67 14.07, 27.2 4.57, 31.98 0.04 M19.59 22.23 C24.65 17.32, 28.17 9.43, 36.94 0.01 M17.91 22.62 C22.17 16.48, 25.66 12.71, 36.25 0.01 M25.41 20.73 C27.65 13.88, 36.79 6.58, 39.31 3.09 M23.85 21.28 C28.04 16.94, 33.5 11.1, 41.06 1.67 M30.27 22.6 C33.99 17.5, 38.68 12.26, 40.24 8.87 M28.13 21.2 C33.3 16.51, 38.18 10.87, 41.41 8.16 M33.71 22.15 C34.65 19.78, 36.34 17.46, 40.65 13.91 M33.96 21.51 C36.87 18.24, 39.99 14.95, 41.85 13.91 M-0.04 19.86 C-0.04 19.86, -0.04 19.86, -0.04 19.86 M-0.04 19.86 C-0.04 19.86, -0.04 19.86, -0.04 19.86 M6.97 20.48 C5.84 18.26, 4.47 18.6, -0.02 15.65 M6.61 20.39 C4.8 18.86, 3.1 17.58, 0 14.51 M12.76 18.6 C7.69 14.87, 3.42 13.24, 0.29 8.35 M12.42 19.51 C7.92 15.67, 3.74 12.18, 0.64 8.55 M18.08 19.81 C12.8 17.42, 8.17 9.81, 2.05 4.81 M18.33 19.44 C13.63 16.73, 8.19 10.75, 1.08 5.1 M25.29 21.32 C16.16 15.92, 12.66 9.97, -0.44 -1.61 M23.8 18.72 C16.96 12.04, 9.32 4.73, 1.46 -1.67 M29.94 20.54 C25.65 14.79, 21.85 11.39, 6.01 -0.38 M29.74 18.97 C25.39 15.58, 20.18 12.29, 6.31 -0.28 M34.88 20.11 C29.91 15.29, 25.77 9.49, 14.37 -0.93 M37.83 20.72 C30.24 13.98, 22.37 8.33, 13.35 0.06 M40.6 17.72 C37.19 16.12, 32.32 11, 18 0.95 M41.18 18.71 C35.24 14.64, 30.13 8.81, 19.53 -0.63 M42.21 11.05 C35.23 9.18, 29.82 5.82, 24.81 -1.07 M40.59 12.9 C36.25 8.72, 31.6 5.94, 25.55 -0.28 M41.92 6.57 C36.73 5.58, 33.16 1.14, 30.87 0.3 M41.58 7.79 C37.68 5.27, 35.17 2.07, 30.8 -1.39 M40.58 2.36 C40.06 1.27, 39.53 1.3, 37.19 -0.82 M40.53 2.05 C39.89 1.65, 39.16 0.91, 37.43 -0.52" stroke="#fab005" stroke-width="0.5" fill="none"></path><path d="M-0.24 -0.38 C12.95 -1.13, 22.82 2.18, 37.61 -0.37 M0.87 -0.85 C10.95 0.97, 22.74 0.57, 38.26 -0.55 M40.65 -0.72 C40.21 5.58, 37.95 15.09, 39.94 20.42 M39.31 0.67 C38.99 8.04, 38.34 16.14, 40.19 18.95 M41.05 21.08 C31.7 19.81, 21.11 19.4, 1.38 20.34 M39.18 19.89 C30.69 19.48, 21.9 19.95, 0.56 19.76 M-0.86 18.21 C0.92 15.31, 0.37 10.66, -0.11 -1.59 M-0.17 20.62 C0.02 13.02, 0.94 4.31, -0.32 -0.4" stroke="#000000" stroke-width="1" fill="none"></path></g><g stroke-linecap="round" transform="translate(36.98730904084323 463.9590431398508) rotate(0 19.620891367601075 9.944730235592885)"><path d="M0 0 C0 0, 0 0, 0 0 M0 0 C0 0, 0 0, 0 0 M0.16 6.06 C1.61 4.57, 3.2 2.07, 4.9 0.22 M-0.05 6.43 C0.99 4.75, 2.79 2.57, 4.8 0.54 M0.37 13.21 C2.17 7.97, 3.4 6.1, 10.06 -1.56 M0.61 11.34 C2.32 8.34, 4.68 6.78, 10.06 0.24 M-1.01 16.97 C6.24 12.31, 11.18 3.54, 13.66 -0.78 M0.46 18.21 C4.1 14.19, 7.41 9.9, 15.08 0.79 M3.82 23 C6.73 16.68, 11.29 9.65, 21.73 -0.4 M1.46 21.49 C6.52 16.9, 11.46 10.43, 20.49 0.16 M7.04 23.21 C15.08 14.28, 18.04 8.42, 25.39 0.04 M6.65 21.82 C13.78 15.04, 18.79 9.46, 25.64 0.48 M12.5 23.71 C17.48 17.21, 22.72 9.23, 30.26 1.53 M11.9 22.12 C17.42 16.94, 20.21 12.91, 32.03 -0.25 M17.93 23.55 C25.43 14.4, 29.95 7.88, 36.63 -1.26 M18.33 22.26 C23.38 14.27, 30.78 7.09, 36.63 0.67 M22.48 19.87 C28.02 16.53, 33.13 7.16, 42.93 0.83 M23.03 21.56 C30.47 14.98, 36.4 7.25, 41.51 1.93 M28.97 23.31 C33.78 17.92, 38.43 10.25, 42.05 8.95 M27.58 22.55 C33.02 17.26, 37.53 11.21, 41.33 7.04 M34.56 20.63 C36.24 18.21, 37.97 16.01, 41.84 14.21 M33.92 21.8 C36.12 19.5, 38.32 16.75, 41.84 13.12 M-0.04 19.86 C-0.04 19.86, -0.04 19.86, -0.04 19.86 M-0.04 19.86 C-0.04 19.86, -0.04 19.86, -0.04 19.86 M6.73 20.82 C4.26 19.57, 4.34 17.47, 1.11 14.37 M6.64 20.01 C4.25 18.02, 2.17 16.28, -0.04 15.09 M10.88 19.71 C7.26 16.56, 5.66 13.68, -0.95 9.75 M11.79 19.65 C7.66 16.38, 4.01 14.16, -0.75 9.01 M18.23 19.23 C15.59 15.75, 7.93 14.18, 0.86 3.63 M17.85 20.24 C12.01 13.5, 3.19 8.43, 1.15 3.87 M25.77 17.84 C19.15 14.83, 11.87 7.02, -0.22 0.04 M23.17 20.25 C18.75 16.3, 13.52 11.97, -0.28 -1.49 M31.13 20.16 C25.41 17.24, 21.61 10.09, 7.16 -2.3 M29.56 19.58 C24.59 14.09, 19.79 8.93, 7.25 -1.16 M36.83 18.92 C27.97 12.64, 18.42 6.53, 12.64 -0.94 M37.45 20.68 C30.06 14.04, 23.53 8.64, 13.63 -1.8 M40.28 19 C38.03 14.83, 32.48 9.65, 20.66 -1.79 M41.27 17.94 C35.49 12.65, 27.91 7.86, 19.08 -0.53 M38.87 12.22 C37.63 8.57, 34.77 6.46, 24.67 -1.52 M40.71 12.8 C35.48 8.25, 31.59 5.08, 25.47 -0.05 M39.73 7.49 C38.58 4.91, 34.09 1.64, 32.18 -0.84 M40.95 7.35 C38.67 5.75, 35.6 3.42, 30.49 -1.27 M40.78 2.31 C39.41 1.72, 39.18 0.34, 37.2 -0.76 M40.46 2.19 C39.58 1.18, 38.32 0.08, 37.49 -0.5" stroke="#fab005" stroke-width="0.5" fill="none"></path><path d="M-0.38 1.89 C12.82 0.74, 30.47 -1.59, 38.87 -0.37 M-0.85 -0.1 C13.81 0.3, 26.44 -1.32, 38.7 0.44 M38.53 1.03 C37.91 4.15, 40.59 11.48, 39.77 21.83 M39.91 -0.29 C39.37 5.41, 39.56 13.66, 38.3 18.97 M40.43 20.51 C29.13 18.44, 18.97 21.62, 0.45 18.32 M39.25 20.02 C24.5 19.9, 10.3 20.42, -0.13 19.58 M-1.68 20.9 C0.71 13.45, 1.42 5.97, -1.59 1.52 M0.73 19.88 C0.54 15.1, -0.68 8.17, -0.4 -0.31" stroke="#000000" stroke-width="1" fill="none"></path></g><g stroke-linecap="round"><g transform="translate(136.8081232381777 205.71629988376048) rotate(299.1659970883984 0.4276365893148295 34.881641337852955)"><path d="M-0.3 -0.11 C-0.43 11.33, 0.14 57.83, 0.04 69.52 M1.74 -1.22 C1.38 10.34, -0.85 59.47, -0.89 70.98" stroke="#000000" stroke-width="1" fill="none"></path></g></g><g stroke-linecap="round" transform="translate(10 97.00006103515625) rotate(0 35.408220894427814 54.15214451096949)"><path d="M-1.75 1.32 L69.69 1.9 L68.87 109.92 L-1.85 106.82" stroke="none" stroke-width="0" fill="#ced4da"></path><path d="M0.41 -1.88 C15.75 -1.24, 32.24 -2.04, 70.49 1.51 M0.73 0.85 C24.04 1.64, 48.33 1.05, 71.4 0.62 M68.98 -0.38 C68.9 38.09, 71.64 79.98, 69.97 109.25 M70.82 0.65 C71.03 24.35, 71.13 49.81, 71.44 108.83 M70.23 106.71 C53.26 106.05, 31.6 106.53, 1.23 107.98 M70.6 107.46 C51.06 109.17, 29.23 109.79, 0.84 108.23 M-0.61 106.5 C1.31 83.48, -1 54.93, -0.53 1.24 M0.46 108.88 C0.4 66.04, 1.34 23.7, -0.41 -0.25" stroke="#000000" stroke-width="1" fill="none"></path></g><g stroke-linecap="round" transform="translate(18.10770409009183 105.25724238555313) rotate(0 27.900581767571623 41.41639447687885)"><path d="M1.32 -1.12 L57.7 -1.95 L57.42 80.98 L-1.49 81.09" stroke="none" stroke-width="0" fill="#fff"></path><path d="M-1.88 -1.28 C14.67 -1.94, 29.26 -0.45, 57.31 0.91 M0.85 -0.43 C22.6 -1.03, 43.62 0.18, 56.42 0.69 M55.42 -1.63 C53.88 23.76, 55.86 44.45, 56.75 81.43 M56.45 0.22 C54.7 25.09, 55.26 50.16, 56.33 82.56 M54.21 84.61 C37.88 82.13, 22.12 83.9, -0.33 82.66 M54.95 83.72 C41.45 82.41, 27.44 83.55, -0.07 82.28 M-1.8 84.41 C1.04 55.17, -0.97 28.44, 1.24 1.72 M0.58 82.29 C-1.16 65.62, -1.67 47.22, -0.25 -0.88" stroke="#000000" stroke-width="1" fill="none"></path></g><g stroke-linecap="round" transform="translate(40.29437385444362 191.63492550813794) rotate(0 5.713912003219434 5.713912003219434)"><path d="M4.77 -0.48 C5.8 -0.73, 7.92 1.08, 8.93 1.66 C9.94 2.24, 10.34 1.81, 10.82 2.98 C11.3 4.14, 12.28 7.38, 11.83 8.65 C11.38 9.92, 9.35 10.04, 8.1 10.58 C6.85 11.13, 5.33 12.3, 4.34 11.94 C3.34 11.58, 2.7 9.4, 2.12 8.42 C1.54 7.43, 0.9 7.21, 0.88 6.04 C0.86 4.88, 1.19 2.34, 2 1.4 C2.8 0.46, 4.97 0.65, 5.72 0.41 C6.46 0.17, 6.43 0.08, 6.46 -0.03 M6.1 1.52 C7.13 1.4, 8.55 1.04, 9.21 1.64 C9.87 2.24, 10.08 3.64, 10.06 5.12 C10.04 6.6, 9.77 9.51, 9.1 10.53 C8.44 11.56, 7 11.19, 6.06 11.24 C5.13 11.3, 4.59 11.6, 3.47 10.87 C2.35 10.15, 0.02 8.36, -0.67 6.9 C-1.35 5.45, -1.41 3.42, -0.65 2.15 C0.11 0.89, 2.76 -0.3, 3.91 -0.68 C5.06 -1.05, 5.65 -0.13, 6.24 -0.1 C6.83 -0.06, 7.02 -0.44, 7.44 -0.46" stroke="none" stroke-width="0" fill="#fff"></path><path d="M4.53 0.85 C5.89 0.84, 8.07 1.02, 9 1.63 C9.94 2.23, 9.64 3.53, 10.13 4.46 C10.62 5.39, 12.04 6.28, 11.94 7.21 C11.85 8.13, 10.71 9.24, 9.57 10.03 C8.44 10.81, 6.4 11.92, 5.13 11.93 C3.86 11.95, 2.87 11.14, 1.97 10.09 C1.07 9.04, 0 7, -0.27 5.63 C-0.53 4.26, -0.34 2.95, 0.4 1.87 C1.14 0.79, 3.27 -0.59, 4.19 -0.87 C5.1 -1.15, 5.8 -0.12, 5.88 0.2 M3.76 1.32 C4.89 0.88, 6.77 -0.74, 8 -0.48 C9.23 -0.22, 10.43 1.55, 11.14 2.88 C11.86 4.2, 12.64 6.31, 12.28 7.49 C11.92 8.66, 10.28 9.37, 8.99 9.95 C7.7 10.53, 5.89 10.74, 4.53 10.99 C3.17 11.23, 1.81 12.21, 0.85 11.43 C-0.1 10.65, -1.01 7.58, -1.18 6.31 C-1.35 5.04, -0.93 4.8, -0.15 3.79 C0.63 2.77, 2.94 0.57, 3.51 0.22 C4.07 -0.13, 3.21 1.77, 3.22 1.67" stroke="#000000" stroke-width="1" fill="none"></path></g><g stroke-linecap="round" transform="translate(26.38739449006198 115.80139906169325) rotate(0 19.620891367601075 9.944730235592885)"><path d="M0 0 C0 0, 0 0, 0 0 M0 0 C0 0, 0 0, 0 0 M-0.1 5.86 C1.41 5.48, 1.44 3.52, 4.51 0.32 M-0.27 6.39 C1.39 4.26, 3.46 2.81, 5.21 0.45 M1.64 10.58 C1.46 9.42, 5.77 4.48, 11.1 1.21 M0.76 11.57 C3.32 8.25, 6.87 4.75, 10.26 0.64 M-0.15 18.61 C2.95 12.56, 10.13 6.81, 15.07 1.07 M-0.16 18.18 C3.7 13.79, 7.51 9.63, 15.66 0.1 M3.7 23.74 C8.26 16.98, 13.99 7.81, 20.82 1.65 M3.05 21.75 C7.4 14.63, 14.72 8.63, 20.6 0.01 M5.27 20.58 C12.54 16.3, 18.64 10.72, 27.1 -1.17 M6.4 21.49 C14.96 13.45, 21.36 5.35, 26.54 0.99 M12.54 21.69 C20.79 13.91, 24.24 8.45, 30.44 -1.51 M12.16 22.11 C19.23 15.06, 26.04 7.44, 32.05 0 M15.92 21.72 C25.56 14.38, 31.41 7.36, 37.38 0.47 M18.39 22.34 C22.32 16.58, 27.01 11.67, 37.25 -0.69 M23.61 20.7 C30.47 17.66, 32.76 9.21, 39.94 1.57 M22.71 21.46 C27.51 16.11, 32.87 9.55, 40.54 1.67 M27.85 21.7 C32.33 18.89, 36.41 13.63, 39.76 7.17 M27.86 22.92 C32.22 18.18, 36.27 11.91, 41.11 7.11 M34.83 21.99 C36.93 18.84, 39.81 14.94, 40.86 12.41 M34.35 21.5 C35.89 19.69, 37.75 17.05, 41.08 13.39 M-0.04 19.86 C-0.04 19.86, -0.04 19.86, -0.04 19.86 M-0.04 19.86 C-0.04 19.86, -0.04 19.86, -0.04 19.86 M5.75 19.59 C4.64 17.87, 2.15 17.28, -0.25 15.62 M6.56 20.51 C4.43 17.76, 1.88 16.08, 0.22 14.61 M10.43 19.6 C8.84 17.58, 5.29 15.37, -1.17 10.61 M12.01 19.59 C9.43 15.94, 4.53 14.41, 0.36 8.81 M20.23 18.26 C13.16 15.79, 6.28 9.02, 2.09 4.5 M18.37 19.18 C13.14 14.79, 7.25 10.99, 0.6 4.8 M23.31 17.77 C16.8 11.84, 5.98 3.99, 1.8 -1.37 M23.11 20.25 C19.27 14.38, 13.69 9.14, 0.68 -1.3 M28.82 20.54 C21.94 13.82, 11.34 4.87, 8.38 -0.52 M29.57 18.91 C23.38 13.58, 17.67 8.93, 6.92 0.22 M38.21 19.54 C28.86 13.5, 24.77 9.64, 12.77 -1.46 M36.79 20.36 C32.24 15.76, 25.64 11.56, 11.71 -1.47 M42.93 16.43 C33.45 13.14, 27.92 7.36, 18.67 -1.35 M40.06 18.19 C35.43 13.11, 28.62 8.6, 19.5 0.15 M41.44 14.51 C37.97 9.84, 32.98 5.17, 24.71 -2.31 M41.16 13.41 C37.9 9.53, 33.48 5.57, 25.27 -0.08 M40.44 7.14 C37.48 6.23, 33.57 2.48, 30.33 -1.96 M41.47 7.78 C39.37 5.47, 36.3 4.05, 31.28 -0.33 M40.16 2.33 C39.75 0.82, 38.26 0.2, 37.58 -0.34 M40.39 2.3 C39.8 1.38, 39.32 0.93, 37.61 -0.48" stroke="#fab005" stroke-width="0.5" fill="none"></path><path d="M-0.72 -1.83 C11.06 -0.08, 26.68 1.16, 40.99 -1.88 M0.98 -0.62 C15.02 0.76, 29.9 0.86, 38.98 -0.11 M37.43 1.11 C39.35 3.3, 40.14 6.89, 39.22 18.56 M38.7 0.32 C39.39 6.6, 39.89 11.69, 39.15 19.1 M37.55 19.35 C27.42 21.47, 17.68 20.07, -0.75 21.51 M39.53 19.58 C29.24 21.08, 17.34 19.69, 0.25 20.72 M1.72 19.16 C-0.1 14, 1.41 10.88, -1.74 1.74 M-0.43 20.28 C-1.05 12.61, -0.36 5.27, 0.65 -0.56" stroke="#000000" stroke-width="1" fill="none"></path></g><g stroke-linecap="round" transform="translate(26.38739449006198 151.35915910664767) rotate(0 19.620891367601075 9.944730235592885)"><path d="M0 0 C0 0, 0 0, 0 0 M0 0 C0 0, 0 0, 0 0 M-0.8 6.86 C2.33 3.24, 3.89 1.19, 4.95 0.47 M-0.27 6.38 C0.8 5.29, 2.55 3.62, 5.08 0.31 M-1.33 10.45 C4.98 7.04, 7.5 3.21, 11.87 0.19 M-0.33 11.96 C3.5 8.26, 7.15 3.87, 11.31 -0.26 M0.04 17.17 C3.02 15.34, 6.31 8.42, 16.36 -0.74 M-0.38 18.53 C5.7 11.55, 12.01 4.67, 15.39 0.06 M4.15 22.8 C10.54 14.93, 14.54 4.72, 22.98 -0.02 M2.17 21.24 C7.46 15.99, 13.86 7.7, 21.34 -0.17 M5.63 21.76 C11.53 18.13, 16.12 14.43, 24.78 1.85 M6.54 22.9 C14.02 13.95, 21.41 6, 26.94 0.43 M12.78 23.76 C17.66 14.61, 24.85 7.04, 30.48 0.84 M13.19 21.33 C17.64 17.2, 21.5 13.13, 31.99 0 M17.43 23.81 C21.27 18.88, 25.43 12.72, 37.09 -1.08 M18.05 22.07 C22.2 16.69, 27.21 11.35, 35.93 0.24 M22.45 23.38 C30.23 14.92, 32.59 9.56, 41.4 1 M23.2 20.9 C29.94 14.11, 35.45 6.62, 41.5 1.64 M28.08 21.91 C33.87 17.43, 37.24 11.9, 40.35 8.35 M29.29 21.71 C32.93 17.56, 35.03 14, 40.28 8.27 M34.4 21.95 C36.09 20.04, 37.02 16.78, 40.34 13.23 M33.91 21.39 C36.15 19.22, 37.56 17.52, 41.32 12.96 M-0.04 19.86 C-0.04 19.86, -0.04 19.86, -0.04 19.86 M-0.04 19.86 C-0.04 19.86, -0.04 19.86, -0.04 19.86 M5.84 20.4 C4.23 18.38, 3.67 16.5, 1.07 15.43 M6.75 20.45 C3.96 18.38, 2.19 16.49, 0.06 14.66 M11.88 19.46 C9.76 16.49, 7.52 13.93, 1.31 8.96 M11.87 20.51 C8.4 16.5, 6.92 15.07, -0.49 9.48 M16.68 20.62 C15.72 16.57, 10.33 15.24, 0.55 4.31 M17.6 20.23 C12.14 15.04, 7.61 10.72, 0.85 4.81 M22.22 20.85 C14.49 10.72, 5.17 5.46, 0.03 -2.02 M24.7 20.25 C17.64 14.86, 11.31 9.16, 0.09 -0.04 M31.13 20.07 C24.5 11.45, 15.62 7.99, 7.01 -0.76 M29.5 19.68 C20.48 12.35, 12.32 3.3, 7.76 -0.73 M36.26 18.7 C29.68 15.92, 25.27 9.35, 12.11 -2.39 M37.08 20.77 C31.72 14.99, 26.95 9.93, 12.09 -0.82 M39 17.73 C33.18 12.01, 25.05 4.01, 18.36 -1.34 M40.75 18.5 C36.17 12.98, 31.74 10.05, 19.86 -1.51 M42.33 13.44 C36.33 8.29, 30.46 5.68, 23.43 -2.46 M41.23 13.76 C35.25 8.23, 28.89 3.79, 25.66 -0.75 M40.3 7.55 C38.89 3.98, 34.68 1.29, 29.92 -1.74 M40.94 8.33 C38.55 5.69, 36.9 4.32, 31.55 -0.38 M40.74 2.41 C39.32 1.24, 38.8 0.69, 37.68 -0.83 M40.71 2.05 C39.4 1.33, 38.51 0.47, 37.53 -0.58" stroke="#fab005" stroke-width="0.5" fill="none"></path><path d="M-1.83 -1.52 C7.76 1.65, 17.09 1.89, 37.36 1.46 M-0.62 0.38 C15.7 0.23, 30.9 -0.65, 39.13 -0.92 M40.35 0.15 C38.23 6.52, 37.68 11.15, 37.91 19.9 M39.56 0.02 C39.91 7.78, 39.02 14.42, 38.45 19.6 M38.7 18.68 C31.82 19.23, 21.77 18.8, 1.62 19.45 M38.94 20.8 C31.64 19.93, 21.8 20.25, 0.83 19.58 M-0.73 19.61 C-0.68 16.95, 1.56 9.8, 1.74 0.91 M0.39 18.95 C-0.3 12.53, -0.76 6.31, -0.56 0.94" stroke="#000000" stroke-width="1" fill="none"></path></g></svg>